<svg width="114" height="89" viewBox="0 0 114 89" fill="none" xmlns="http://www.w3.org/2000/svg">
<path opacity="0.1" d="M47.1336 28.4174C47.1336 46.0585 41.3478 62.2438 29.7763 76.9733C22.4589 85.8794 16.5881 89.7331 12.1637 88.5342C8.07957 86.9927 6.03752 84.6805 6.03752 81.5976C6.03752 78.686 7.39889 75.6031 10.1216 72.3489C12.6742 69.0947 14.7162 66.44 16.2477 64.3847C17.7793 62.3294 19.0555 60.1029 20.0766 57.705C22.459 52.9094 23.6501 47.0861 23.6501 40.2352C19.5661 41.4341 15.482 40.9203 11.3979 38.6937C3.91041 34.4119 0.166667 28.9312 0.166668 22.2515C0.166669 15.7432 2.20871 10.4337 6.29279 6.32314C10.2067 2.38386 15.6522 0.414228 22.6291 0.41423C29.6061 0.414231 35.477 3.06896 40.2417 8.37842C44.8363 13.8592 47.1336 20.5388 47.1336 28.4174ZM113.5 28.4174C113.5 46.7436 107.799 62.9289 96.3979 76.9733C87.7192 87.4209 80.487 90.5895 74.7012 86.4789C73.51 85.6225 72.9144 84.2524 72.9144 82.3684C72.9144 78.9429 74.1907 75.6031 76.7432 72.3489C79.1256 69.0947 81.0826 66.44 82.6141 64.3847C84.1456 62.3294 85.4219 60.1029 86.4429 57.7051C88.8253 52.9094 90.0165 47.0861 90.0165 40.2352C85.9324 41.4341 81.9334 40.9203 78.0195 38.6937C70.7022 34.4119 67.0435 28.9312 67.0435 22.2515C67.0435 15.7432 69.0005 10.4337 72.9144 6.32315C76.8283 2.38387 82.2738 0.41424 89.2508 0.414241C96.2277 0.414243 102.014 3.06898 106.608 8.37843C111.203 13.8592 113.5 20.5388 113.5 28.4174Z" fill="#2C2C2C"/>
</svg>
