<svg width="112" height="88" viewBox="0 0 112 88" fill="none" xmlns="http://www.w3.org/2000/svg">
<path opacity="0.1" d="M65.5569 59.6062C65.5569 42.2979 71.2576 26.418 82.659 11.9664C89.8687 3.22829 95.6532 -0.552644 100.013 0.623646C104.037 2.13602 106.049 4.40458 106.049 7.42933C106.049 10.286 104.707 13.3108 102.025 16.5036C99.5096 19.6964 97.4976 22.301 95.9886 24.3175C94.4796 26.334 93.2221 28.5185 92.216 30.8711C89.8687 35.5763 88.695 41.2897 88.695 48.0113C92.7191 46.835 96.7431 47.3392 100.767 49.5237C108.144 53.7247 111.833 59.1021 111.833 65.6557C111.833 72.0413 109.821 77.2505 105.797 81.2835C101.941 85.1485 96.5754 87.081 89.701 87.081C82.8267 87.081 77.0421 84.4763 72.3474 79.267C67.8204 73.8897 65.5569 67.3361 65.5569 59.6062ZM0.166504 59.6062C0.166504 41.6258 5.78337 25.7458 17.0171 11.9664C25.5682 1.71592 32.694 -1.39285 38.3947 2.64014C39.5684 3.48035 40.1552 4.82468 40.1552 6.67314C40.1552 10.034 38.8977 13.3108 36.3827 16.5036C34.0354 19.6964 32.1072 22.301 30.5982 24.3175C29.0892 26.334 27.8317 28.5185 26.8257 30.8711C24.4783 35.5763 23.3046 41.2897 23.3046 48.0113C27.3287 46.835 31.2689 47.3392 35.1252 49.5237C42.3349 53.7247 45.9398 59.1021 45.9398 65.6557C45.9398 72.0413 44.0116 77.2505 40.1552 81.2835C36.2989 85.1485 30.9335 87.081 24.0591 87.081C17.1848 87.081 11.4841 84.4763 6.95704 79.267C2.43002 73.8897 0.166504 67.3361 0.166504 59.6062Z" fill="#2C2C2C"/>
</svg>
